# xmcd CD database file
#
# Track frame offsets:
#	150
#	13478
#	29152
#	48242
#	66026
#	83555
#	99148
#	116158
#	131589
#	144210
#	159936
#
# Disc length: 2334 seconds
#
# Revision: 0
# Processed by: cddbd v1.5.1PL0 Copyright (c) Steve Scherf et al.
# Submitted via: CDex 1.51
#
DISCID=8a091c0b
DTITLE=Half Ton of Blues - Worth the Weight
DYEAR=1900
DGENRE=Blues
TTITLE0=Shake Your Money Maker
TTITLE1=Crossroads
TTITLE2=Leave My Little Girl Alone
TTITLE3=You Got Work To Do
TTITLE4=Satisfy Susie
TTITLE5=T-Bone Shuffle
TTITLE6=Sweet Spot
TTITLE7=I Can See Clearly
TTITLE8=Tore Down
TTITLE9=Double-Eyed Whammy
TTITLE10=Born in Chicago
EXTD=
EXTT0=
EXTT1=
EXTT2=
EXTT3=
EXTT4=
EXTT5=
EXTT6=
EXTT7=
EXTT8=
EXTT9=
EXTT10=
PLAYORDER=
